<svg width="21" height="18" viewBox="0 0 21 18" fill="none" xmlns="http://www.w3.org/2000/svg">
<path d="M14.11 5.14C14.5 5.14 14.88 5.17 15.25 5.22C14.57 2.25 11.45 0 7.7 0C3.45 0 0 2.88 0 6.43C0 8.48 1.15 10.29 2.94 11.47L1.93 13.5L4.69 12.31C5.28 12.52 5.9 12.69 6.56 12.78C6.47 12.39 6.42 11.99 6.42 11.57C6.41 8.03 9.86 5.14 14.11 5.14ZM10.26 2.89C10.3861 2.89 10.5109 2.91483 10.6274 2.96308C10.7438 3.01132 10.8497 3.08203 10.9388 3.17118C11.028 3.26032 11.0987 3.36615 11.1469 3.48262C11.1952 3.5991 11.22 3.72393 11.22 3.85C11.22 3.97607 11.1952 4.1009 11.1469 4.21738C11.0987 4.33385 11.028 4.43968 10.9388 4.52882C10.8497 4.61797 10.7438 4.68868 10.6274 4.73692C10.5109 4.78517 10.3861 4.81 10.26 4.81C10.0054 4.81 9.76121 4.70886 9.58118 4.52882C9.40114 4.34879 9.3 4.10461 9.3 3.85C9.3 3.59539 9.40114 3.35121 9.58118 3.17118C9.76121 2.99114 10.0054 2.89 10.26 2.89ZM5.13 4.82C4.87539 4.82 4.63121 4.71886 4.45118 4.53882C4.27114 4.35879 4.17 4.11461 4.17 3.86C4.17 3.60539 4.27114 3.36121 4.45118 3.18118C4.63121 3.00114 4.87539 2.9 5.13 2.9C5.38461 2.9 5.62879 3.00114 5.80882 3.18118C5.98886 3.36121 6.09 3.60539 6.09 3.86C6.09 4.11461 5.98886 4.35879 5.80882 4.53882C5.62879 4.71886 5.38461 4.82 5.13 4.82Z" fill="#A08644"/>
<path d="M20.5192 11.5701C20.5192 8.73005 17.6492 6.43005 14.1092 6.43005C10.5692 6.43005 7.69922 8.73005 7.69922 11.5701C7.69922 14.4101 10.5692 16.7101 14.1092 16.7101C14.6892 16.7101 15.2492 16.6301 15.7792 16.5101L19.2392 18.0001L18.0392 15.6001C19.5392 14.6601 20.5192 13.2201 20.5192 11.5701ZM12.1792 11.2501C11.9893 11.2501 11.8037 11.1938 11.6459 11.0883C11.488 10.9828 11.365 10.8328 11.2923 10.6574C11.2196 10.482 11.2006 10.289 11.2377 10.1028C11.2747 9.91655 11.3661 9.74549 11.5004 9.61123C11.6347 9.47697 11.8057 9.38554 11.9919 9.3485C12.1782 9.31146 12.3712 9.33047 12.5466 9.40313C12.722 9.47579 12.8719 9.59884 12.9774 9.75671C13.0829 9.91458 13.1392 10.1002 13.1392 10.2901C13.1492 10.8201 12.7092 11.2501 12.1792 11.2501ZM16.0292 11.2501C15.7746 11.2501 15.5304 11.1489 15.3504 10.9689C15.1704 10.7888 15.0692 10.5447 15.0692 10.2901C15.0692 10.0354 15.1704 9.79127 15.3504 9.61123C15.5304 9.4312 15.7746 9.33005 16.0292 9.33005C16.2838 9.33005 16.528 9.4312 16.708 9.61123C16.8881 9.79127 16.9892 10.0354 16.9892 10.2901C16.9892 10.5447 16.8881 10.7888 16.708 10.9689C16.528 11.1489 16.2838 11.2501 16.0292 11.2501Z" fill="#A08644"/>
</svg>
